<svg width="128" height="128" viewBox="0 0 128 128" fill="none" xmlns="http://www.w3.org/2000/svg">
  <rect width="128" height="128" rx="28" fill="#0F172A"/>
  <rect x="18" y="18" width="92" height="92" rx="22" fill="#1D4ED8"/>
  <path d="M40 42C40 37.5817 43.5817 34 48 34H72C76.4183 34 80 37.5817 80 42V50H72V42H48V86H72V78H80V86C80 90.4183 76.4183 94 72 94H48C43.5817 94 40 90.4183 40 86V42Z" fill="white"/>
  <path d="M69 64C69 61.7909 70.7909 60 73 60H92.3431L86.1716 53.8284L91.8284 48.1716L107.657 64L91.8284 79.8284L86.1716 74.1716L92.3431 68H73C70.7909 68 69 66.2091 69 64Z" fill="#BFDBFE"/>
</svg>
